<svg width="32" height="32" viewBox="0 0 32 32" fill="none" xmlns="http://www.w3.org/2000/svg">
<g clip-path="url(#clip0_4692_17917)">
<path d="M11.2933 22.94L10.82 23.4067C10.6961 23.5306 10.5491 23.629 10.3872 23.6961C10.2254 23.7632 10.0519 23.7977 9.87664 23.7977C9.70142 23.7977 9.52792 23.7632 9.36606 23.6961C9.20419 23.629 9.05714 23.5306 8.93331 23.4067L2.33331 16.8067C2.20934 16.6828 2.111 16.5358 2.0439 16.3739C1.9768 16.2121 1.94226 16.0386 1.94226 15.8633C1.94226 15.6881 1.9768 15.5146 2.0439 15.3528C2.111 15.1909 2.20934 15.0438 2.33331 14.92L2.80664 14.4533C2.93047 14.3294 3.07753 14.231 3.23939 14.1639C3.40125 14.0968 3.57476 14.0623 3.74998 14.0623C3.9252 14.0623 4.0987 14.0968 4.26056 14.1639C4.42243 14.231 4.56948 14.3294 4.69331 14.4533L11.2933 21.0533C11.4173 21.1772 11.5156 21.3242 11.5827 21.4861C11.6498 21.648 11.6844 21.8215 11.6844 21.9967C11.6844 22.1719 11.6498 22.3454 11.5827 22.5073C11.5156 22.6691 11.4173 22.8162 11.2933 22.94ZM24 10.2067L23.5266 10.68C23.4028 10.804 23.2558 10.9023 23.0939 10.9694C22.932 11.0365 22.7585 11.0711 22.5833 11.0711C22.4081 11.0711 22.2346 11.0365 22.0727 10.9694C21.9109 10.9023 21.7638 10.804 21.64 10.68L15.04 4.08001C14.916 3.95618 14.8177 3.80913 14.7506 3.64727C14.6835 3.4854 14.6489 3.3119 14.6489 3.13668C14.6489 2.96146 14.6835 2.78796 14.7506 2.62609C14.8177 2.46423 14.916 2.31718 15.04 2.19335L15.5133 1.72668C15.6371 1.60271 15.7842 1.50437 15.9461 1.43727C16.1079 1.37017 16.2814 1.33563 16.4566 1.33563C16.6319 1.33563 16.8054 1.37017 16.9672 1.43727C17.1291 1.50437 17.2761 1.60271 17.4 1.72668L24 8.32668C24.2483 8.5765 24.3877 8.91443 24.3877 9.26668C24.3877 9.61893 24.2483 9.95686 24 10.2067Z" fill="#BEC6C6"/>
<path d="M21.66 10.6667C19.194 14.9925 15.6144 18.579 11.2934 21.0533L4.66669 14.4533C7.14062 10.1279 10.7299 6.54559 15.06 4.07999L21.66 10.6667Z" fill="#F9F8F8"/>
<path d="M20.72 17.28L17.8934 20.1067C17.7695 20.2306 17.6225 20.329 17.4606 20.3961C17.2987 20.4632 17.1252 20.4977 16.95 20.4977C16.7748 20.4977 16.6013 20.4632 16.4394 20.3961C16.2776 20.329 16.1305 20.2306 16.0067 20.1067L14.6734 18.7733C16.4316 17.4009 18.0126 15.8155 19.38 14.0533L20.7134 15.3867C20.8388 15.5102 20.9385 15.6573 21.0067 15.8195C21.075 15.9818 21.1105 16.1559 21.1111 16.332C21.1117 16.508 21.0775 16.6824 21.0104 16.8451C20.9432 17.0078 20.8446 17.1556 20.72 17.28ZM14.6734 18.7733L14.6667 18.7667Z" fill="#BEC6C6"/>
<path d="M30.08 28.6667L29.2666 29.4733C29.0755 29.6637 28.8479 29.8134 28.5974 29.9135C28.3469 30.0136 28.0788 30.062 27.8091 30.0558C27.5394 30.0495 27.2738 29.9888 27.0282 29.8773C26.7826 29.7657 26.5621 29.6056 26.38 29.4067L17.8933 20.1067L20.72 17.28L30 25.7667C30.2019 25.948 30.3648 26.1686 30.4788 26.4149C30.5927 26.6612 30.6553 26.9282 30.6628 27.1995C30.6703 27.4708 30.6225 27.7408 30.5223 27.993C30.4221 28.2453 30.2716 28.4745 30.08 28.6667Z" fill="#F9F8F8"/>
<path d="M14 30H2L2.41333 28.34C2.48607 28.0522 2.65279 27.7969 2.88707 27.6145C3.12135 27.4321 3.40978 27.3332 3.70667 27.3333H12.2933C12.5902 27.3332 12.8787 27.4321 13.1129 27.6145C13.3472 27.7969 13.5139 28.0522 13.5867 28.34L14 30Z" fill="#F5A524"/>
<path d="M30.4667 25.2733L21.5867 17.1733C21.7594 16.8026 21.8143 16.3878 21.744 15.9849C21.6736 15.582 21.4815 15.2103 21.1934 14.92L20.2667 14C20.8467 13.2267 21.38 12.4267 21.88 11.6C22.239 11.737 22.6298 11.7678 23.0057 11.6886C23.3817 11.6094 23.7269 11.4236 24 11.1533L24.4667 10.68C24.8412 10.305 25.0516 9.79667 25.0516 9.26667C25.0516 8.73666 24.8412 8.22833 24.4667 7.85333L17.8667 1.25333C17.4917 0.878799 16.9834 0.668427 16.4534 0.668427C15.9234 0.668427 15.415 0.878799 15.04 1.25333C14.5 1.82 14 2.21333 14 3.14C13.9995 3.38898 14.047 3.63572 14.14 3.86667C10.1811 6.2567 6.86339 9.57441 4.47335 13.5333C4.10992 13.3946 3.71389 13.3648 3.33379 13.4477C2.95369 13.5306 2.60602 13.7225 2.33335 14L1.86002 14.4733C1.48549 14.8483 1.27511 15.3567 1.27511 15.8867C1.27511 16.4167 1.48549 16.925 1.86002 17.3L8.46002 23.9C8.83473 24.2752 9.3431 24.4862 9.87335 24.4867C10.2472 24.4626 10.6108 24.3549 10.9373 24.1714C11.2639 23.9879 11.545 23.7334 11.76 23.4267C12.0341 23.1518 12.2223 22.8031 12.3016 22.4231C12.3809 22.0431 12.3479 21.6482 12.2067 21.2867C13.034 20.7907 13.8351 20.2522 14.6067 19.6733L15.5334 20.6C15.8231 20.8867 16.1936 21.078 16.5951 21.1483C16.9967 21.2186 17.4101 21.1645 17.78 20.9933L25.8867 29.8533C26.1396 30.1317 26.4486 30.3534 26.7933 30.504C27.1379 30.6545 27.5106 30.7304 27.8867 30.7267C29.1734 30.7267 29.7334 29.9733 30.5534 29.1333C30.809 28.8785 31.0103 28.5744 31.145 28.2394C31.2797 27.9045 31.3449 27.5457 31.3368 27.1848C31.3287 26.8239 31.2474 26.4683 31.0979 26.1398C30.9483 25.8112 30.7336 25.5165 30.4667 25.2733ZM15.5334 2.66667C15.9667 2.23333 16.12 2 16.4734 2C16.5611 1.99949 16.6481 2.01631 16.7293 2.04949C16.8105 2.08266 16.8844 2.13155 16.9467 2.19333L23.5467 8.79333C23.6092 8.85531 23.6588 8.92904 23.6926 9.01028C23.7265 9.09152 23.7439 9.17866 23.7439 9.26667C23.7439 9.35467 23.7265 9.44181 23.6926 9.52305C23.6588 9.60429 23.6092 9.67802 23.5467 9.74L23.0734 10.2067C22.9484 10.3308 22.7795 10.4005 22.6034 10.4005C22.4272 10.4005 22.2583 10.3308 22.1334 10.2067L15.5334 3.60667C15.4092 3.48176 15.3395 3.31279 15.3395 3.13667C15.3395 2.96054 15.4092 2.79158 15.5334 2.66667ZM14.9534 4.91333L20.8267 10.7867C18.5186 14.665 15.2783 17.9053 11.4 20.2133L5.52669 14.3467C7.83832 10.4694 11.0777 7.2277 14.9534 4.91333ZM10.82 22.4667L10.3467 22.94C10.2218 23.0642 10.0528 23.1339 9.87669 23.1339C9.70056 23.1339 9.5316 23.0642 9.40669 22.94L2.80669 16.34C2.7442 16.278 2.69461 16.2043 2.66076 16.1231C2.62691 16.0418 2.60949 15.9547 2.60949 15.8667C2.60949 15.7787 2.62691 15.6915 2.66076 15.6103C2.69461 15.529 2.7442 15.4553 2.80669 15.3933C3.23335 14.9667 3.39335 14.7267 3.74669 14.7267C3.83442 14.7262 3.9214 14.743 4.00262 14.7762C4.08385 14.8093 4.15773 14.8582 4.22002 14.92L10.82 21.52C10.8825 21.582 10.9321 21.6557 10.9659 21.7369C10.9998 21.8182 11.0172 21.9053 11.0172 21.9933C11.0172 22.0813 10.9998 22.1685 10.9659 22.2497C10.9321 22.331 10.8825 22.4047 10.82 22.4667ZM16.4734 19.64L15.6534 18.82C17.0267 17.6834 18.29 16.42 19.4267 15.0467L20.2467 15.8667C20.3709 15.9916 20.4405 16.1605 20.4405 16.3367C20.4405 16.5128 20.3709 16.6818 20.2467 16.8067L17.42 19.64C17.358 19.7025 17.2843 19.7521 17.2031 19.7859C17.1218 19.8198 17.0347 19.8372 16.9467 19.8372C16.8587 19.8372 16.7715 19.8198 16.6903 19.7859C16.6091 19.7521 16.5353 19.7025 16.4734 19.64ZM29.6067 28.1867L28.8 29C28.6724 29.1271 28.5204 29.2271 28.3531 29.2938C28.1858 29.3605 28.0068 29.3927 27.8267 29.3883C27.6467 29.384 27.4694 29.3432 27.3055 29.2684C27.1417 29.1937 26.9946 29.0865 26.8734 28.9533L18.8134 20.1267L20.74 18.2L29.5667 26.26C29.6994 26.3817 29.806 26.5291 29.8802 26.6932C29.9544 26.8573 29.9946 27.0347 29.9983 27.2148C30.0021 27.3948 29.9693 27.5738 29.902 27.7408C29.8347 27.9078 29.7342 28.0595 29.6067 28.1867ZM14.6667 30H1.33335C1.15654 30 0.986973 30.0702 0.861949 30.1953C0.736925 30.3203 0.666687 30.4899 0.666687 30.6667C0.666687 30.8435 0.736925 31.013 0.861949 31.1381C0.986973 31.2631 1.15654 31.3333 1.33335 31.3333H14.6667C14.8435 31.3333 15.0131 31.2631 15.1381 31.1381C15.2631 31.013 15.3334 30.8435 15.3334 30.6667C15.3334 30.4899 15.2631 30.3203 15.1381 30.1953C15.0131 30.0702 14.8435 30 14.6667 30Z" fill="#414141"/>
</g>
<defs>
<clipPath id="clip0_4692_17917">
<rect width="32" height="32" fill="white"/>
</clipPath>
</defs>
</svg>
