<svg width="512" height="512" viewBox="0 0 512 512" fill="none" xmlns="http://www.w3.org/2000/svg">
<rect width="512" height="512" rx="128" fill="#F5A524"/>
<g filter="url(#filter0_d_4454_1619)">
<path d="M232.404 101.192C238.843 90.0395 250.692 83.9585 262.722 84.3499C274.75 83.96 286.597 90.0409 293.035 101.192L364.722 225.357C372.059 238.064 370.181 253.562 361.163 264.116C356.552 271.785 348.914 277.612 339.483 279.678C333.61 280.963 328.098 283.542 323.347 287.226C318.596 290.91 314.727 295.607 312.019 300.975C309.312 306.342 307.835 312.246 307.696 318.256C307.557 324.266 308.76 330.232 311.216 335.719C313.673 341.206 317.321 346.077 321.897 349.976C326.472 353.876 331.859 356.706 337.667 358.262C343.474 359.818 349.554 360.06 355.467 358.97C361.379 357.881 366.974 355.487 371.844 351.963C386.927 341.051 408.001 344.432 418.913 359.515C429.825 374.598 426.444 395.671 411.361 406.583C398.372 415.98 383.452 422.363 367.686 425.269C351.92 428.175 335.705 427.53 320.22 423.381C304.734 419.232 290.368 411.684 278.167 401.285C265.966 390.886 256.236 377.898 249.685 363.266C243.135 348.634 239.928 332.726 240.298 316.699C240.669 300.671 244.607 284.928 251.827 270.614C259.046 256.301 269.366 243.776 282.035 233.952C284.287 232.206 286.603 230.552 288.977 228.995L262.72 183.515L131.237 411.249C121.929 427.371 101.314 432.895 85.1916 423.587C69.0694 414.279 63.5455 393.664 72.8537 377.541L232.404 101.192Z" fill="white"/>
</g>
<defs>
<filter id="filter0_d_4454_1619" x="36.332" y="56.3322" width="420.981" height="407.777" filterUnits="userSpaceOnUse" color-interpolation-filters="sRGB">
<feFlood flood-opacity="0" result="BackgroundImageFix"/>
<feColorMatrix in="SourceAlpha" type="matrix" values="0 0 0 0 0 0 0 0 0 0 0 0 0 0 0 0 0 0 127 0" result="hardAlpha"/>
<feOffset dy="4"/>
<feGaussianBlur stdDeviation="16"/>
<feComposite in2="hardAlpha" operator="out"/>
<feColorMatrix type="matrix" values="0 0 0 0 0 0 0 0 0 0.446953 0 0 0 0 0.958333 0 0 0 0.25 0"/>
<feBlend mode="normal" in2="BackgroundImageFix" result="effect1_dropShadow_4454_1619"/>
<feBlend mode="normal" in="SourceGraphic" in2="effect1_dropShadow_4454_1619" result="shape"/>
</filter>
</defs>
</svg>
