<svg width="512" height="512" viewBox="0 0 512 512" fill="none" xmlns="http://www.w3.org/2000/svg">
<rect width="512" height="512" rx="128" fill="#0D0D0D"/>
<path fill-rule="evenodd" clip-rule="evenodd" d="M439.436 334.713C457.109 365.324 446.621 404.466 416.011 422.139C385.4 439.812 346.258 429.324 328.585 398.713L310.572 377.584H201.449L183.436 398.713C165.763 429.324 126.621 439.812 96.0107 422.139C65.4 404.466 54.9119 365.324 72.5851 334.713L200.031 113.971C202.885 108.812 206.471 104.014 210.743 99.7467C216.29 94.1921 222.736 89.797 229.703 86.6627C238.182 82.8272 247.146 80.9917 256.011 81C264.874 80.9917 273.836 82.8265 282.314 86.6605C289.285 89.796 295.735 94.1937 301.284 99.7523C305.554 104.018 309.138 108.814 311.99 113.97L439.436 334.713ZM264.584 313.584C229.238 313.584 200.584 284.93 200.584 249.584C200.584 214.238 229.238 185.584 264.584 185.584C299.93 185.584 328.584 214.238 328.584 249.584C328.584 284.93 299.93 313.584 264.584 313.584Z" fill="url(#paint0_linear_4454_1619)"/>
<defs>
<linearGradient id="paint0_linear_4454_1619" x1="104.584" y1="329.584" x2="424.584" y2="329.584" gradientUnits="userSpaceOnUse">
<stop offset="0.25" stop-color="#FF9F06"/>
<stop offset="0.75" stop-color="#7828C8"/>
</linearGradient>
</defs>
</svg>
